<?xml version="1.0" encoding="UTF-8" standalone="no"?>
<!-- Created with Inkscape (http://www.inkscape.org/) -->

<svg
   xmlns:dc="http://purl.org/dc/elements/1.1/"
   xmlns:cc="http://creativecommons.org/ns#"
   xmlns:rdf="http://www.w3.org/1999/02/22-rdf-syntax-ns#"
   xmlns:svg="http://www.w3.org/2000/svg"
   xmlns="http://www.w3.org/2000/svg"
   xmlns:sodipodi="http://sodipodi.sourceforge.net/DTD/sodipodi-0.dtd"
   xmlns:inkscape="http://www.inkscape.org/namespaces/inkscape"
   id="svg2"
   version="1.1"
   inkscape:version="0.48.5 r10040"
   width="692.875"
   height="136.3"
   xml:space="preserve"
   sodipodi:docname="adfinisSyGroup_Logo2C.eps"><metadata
     id="metadata8"><rdf:RDF><cc:Work
         rdf:about=""><dc:format>image/svg+xml</dc:format><dc:type
           rdf:resource="http://purl.org/dc/dcmitype/StillImage" /><dc:title></dc:title></cc:Work></rdf:RDF></metadata><defs
     id="defs6" /><sodipodi:namedview
     pagecolor="#ffffff"
     bordercolor="#666666"
     borderopacity="1"
     objecttolerance="10"
     gridtolerance="10"
     guidetolerance="10"
     inkscape:pageopacity="0"
     inkscape:pageshadow="2"
     inkscape:window-width="958"
     inkscape:window-height="1182"
     id="namedview4"
     showgrid="false"
     inkscape:zoom="0.78173378"
     inkscape:cx="379.3723"
     inkscape:cy="-25.989376"
     inkscape:window-x="1680"
     inkscape:window-y="16"
     inkscape:window-maximized="0"
     inkscape:current-layer="g10" /><g
     id="g10"
     inkscape:groupmode="layer"
     inkscape:label="ink_ext_XXXXXX"
     transform="matrix(1.25,0,0,-1.25,0,136.3)"><g
       id="g12"
       transform="scale(0.1,0.1)"><path
         d="m 274.551,619.043 c -5.102,14.129 -9.778,28.113 -14.028,41.953 -4.25,13.84 -8.074,28.113 -11.476,42.801 l -1.699,0 c -3.399,-14.129 -7.368,-28.25 -11.899,-42.379 -4.543,-14.133 -9.351,-28.539 -14.449,-43.227 l -77.352,-211.043 208.25,0 -77.347,211.895 z m 146.195,-408.242 -48.445,136.844 -248.199,0 -48.4536,-136.844 -75.6484,0 210.801,573.75 80.746,0 211.652,-573.75 -82.453,0"
         style="fill:#baad9f;fill-opacity:1;fill-rule:nonzero;stroke:none"
         id="path14" /><path
         d="m 818.551,572.898 c -13.043,3.399 -26.074,5.801 -39.102,7.231 -13.043,1.402 -25.793,2.117 -38.25,2.117 -20.969,0 -39.949,-3.262 -56.953,-9.766 C 667.25,565.957 652.652,555.754 640.473,541.875 628.281,527.988 618.93,510 612.422,487.898 c -6.52,-22.097 -9.777,-48.445 -9.777,-79.05 0,-46.465 7.785,-82.453 23.378,-107.95 15.579,-25.5 40.086,-38.253 73.528,-38.253 19.828,0 37.105,5.234 51.844,15.734 14.734,10.476 27.058,23.797 36.98,39.949 9.906,16.145 17.426,33.996 22.523,53.547 5.102,19.551 7.653,38.672 7.653,57.375 l 0,143.648 z m 1.699,-362.097 c 0,12.461 0.426,27.051 1.273,43.777 0.848,16.699 2.688,31.582 5.528,44.621 l -1.703,0.848 c -11.34,-29.473 -29.469,-52.988 -54.403,-70.543 -24.937,-17.57 -54.398,-26.352 -88.394,-26.352 -52.145,0 -91.098,17.707 -116.875,53.125 -25.793,35.403 -38.68,84.004 -38.68,145.774 0,37.402 5.106,70.683 15.305,99.871 10.199,29.18 24.777,53.976 43.773,74.375 18.981,20.402 41.781,35.976 68.422,46.75 26.633,10.762 56.66,16.152 90.106,16.152 11.898,0 23.929,-0.422 36.121,-1.269 12.175,-0.852 24.785,-1.844 37.828,-2.981 l 0,196.348 72.25,0 0,-620.496 -70.551,0"
         style="fill:#baad9f;fill-opacity:1;fill-rule:nonzero;stroke:none"
         id="path16" /><path
         d="m 1298.79,210.801 0,366.347 -188.7,0 0,-366.347 -72.25,0 0,366.347 -88.399,0 0,56.106 88.399,0 0,19.547 c 0,59.504 15.9,105.109 47.72,136.847 31.82,31.731 81.26,47.598 148.31,47.598 21.01,0 41.34,-1.562 60.93,-4.668 19.61,-3.125 38.5,-6.953 56.69,-11.476 l -13.65,-60.348 c -15.93,5.094 -33.27,9.195 -52.04,12.32 -18.76,3.106 -35.82,4.68 -51.17,4.68 -44.36,0 -76.21,-10.07 -95.55,-30.176 -19.33,-20.129 -28.99,-48.879 -28.99,-86.281 l 0,-28.043 260.95,0 0,-422.453 -72.25,0"
         style="fill:#baad9f;fill-opacity:1;fill-rule:nonzero;stroke:none"
         id="path18" /><path
         d="m 1767.13,210.801 0,272.851 c 0,31.153 -5.25,55.379 -15.72,72.676 -10.5,17.274 -30.18,25.918 -59.08,25.918 -18.14,0 -34.72,-4.246 -49.72,-12.742 -15.03,-8.508 -28.05,-20.266 -39.1,-35.277 -11.05,-15.016 -19.55,-32.872 -25.5,-53.555 -5.95,-20.692 -8.93,-42.918 -8.93,-66.719 l 0,-203.152 -72.25,0 0,422.453 70.55,0 c 0,-13.051 -0.57,-28.195 -1.7,-45.481 -1.14,-17.285 -3.12,-32.168 -5.95,-44.621 l 1.7,-0.847 c 12.49,30.031 31.53,54.101 57.11,72.246 25.58,18.125 56.55,27.199 92.94,27.199 24.44,0 44.91,-3.547 61.39,-10.625 16.48,-7.094 29.55,-16.723 39.22,-28.898 9.67,-12.2 16.63,-26.497 20.89,-42.93 4.26,-16.438 6.4,-33.996 6.4,-52.695 l 0,-295.801 -72.25,0"
         style="fill:#baad9f;fill-opacity:1;fill-rule:nonzero;stroke:none"
         id="path20" /><path
         d="m 1965.17,210.801 0,422.453 72.25,0 0,-422.453 -72.25,0 z m 85,555.898 c 0,-13.039 -4.82,-24.219 -14.45,-33.574 -9.64,-9.348 -20.97,-14.023 -34,-14.023 -13.6,0 -25.07,4.675 -34.43,14.023 -9.35,9.355 -14.02,20.535 -14.02,33.574 0,13.028 4.67,24.082 14.02,33.153 9.36,9.054 20.83,13.593 34.43,13.593 13.03,0 24.36,-4.394 34,-13.172 9.63,-8.789 14.45,-19.972 14.45,-33.574"
         style="fill:#baad9f;fill-opacity:1;fill-rule:nonzero;stroke:none"
         id="path22" /><path
         d="m 2408.86,332.352 c 0,-19.844 -4.25,-37.696 -12.75,-53.555 -8.5,-15.867 -20.27,-29.324 -35.28,-40.371 -15.01,-11.051 -33.01,-19.696 -53.97,-25.926 -20.97,-6.23 -43.92,-9.348 -68.85,-9.348 -19.27,0 -37.55,1.418 -54.82,4.25 -17.3,2.84 -33.58,6.797 -48.88,11.895 l 10.2,63.75 c 14.73,-6.242 30.6,-11.192 47.6,-14.875 17,-3.692 35.7,-5.527 56.1,-5.527 23.23,0 43.21,4.96 59.93,14.882 16.7,9.903 25.07,25.071 25.07,45.473 0,16.434 -5.52,29.754 -16.57,39.949 -11.05,10.203 -29.33,20.106 -54.83,29.754 l -26.35,10.195 c -35.7,13.606 -61.07,29.329 -76.07,47.18 -15.02,17.852 -22.53,41.504 -22.53,70.977 0,16.425 3.4,32 10.2,46.746 6.8,14.726 17,27.48 30.6,38.254 13.6,10.75 30.46,19.258 50.58,25.496 20.1,6.23 43.48,9.347 70.12,9.347 14.16,0 28.61,-0.714 43.35,-2.121 14.73,-1.425 28.61,-3.543 41.65,-6.375 l -8.5,-61.203 c -13.6,4.531 -27.07,7.93 -40.37,10.196 -13.32,2.265 -28.2,3.41 -44.63,3.41 -28.34,0 -48.45,-5.782 -60.35,-17.325 -11.9,-11.542 -17.85,-24.914 -17.85,-40.105 0,-15.766 5.38,-28.852 16.15,-39.262 10.76,-10.41 30.88,-21.25 60.35,-32.508 l 28.05,-11.054 c 30.6,-11.906 53.69,-26.348 69.28,-43.352 15.57,-17 23.37,-39.949 23.37,-68.847"
         style="fill:#baad9f;fill-opacity:1;fill-rule:nonzero;stroke:none"
         id="path24" /><path
         d="m 2884.56,666.797 c 0,-30.41 -6.41,-57.598 -19.2,-81.594 -12.81,-24.004 -30.8,-44.812 -54,-62.402 -23.22,-17.606 -51.41,-31.016 -84.6,-40.203 -33.21,-9.18 -70.62,-13.801 -112.2,-13.801 -20.81,0 -43.62,1.406 -68.4,4.203 -24.81,2.809 -46.8,6.598 -66,11.402 l 18,133.196 c 18.39,-7.2 37.8,-12.801 58.2,-16.797 20.4,-4.016 42.18,-5.996 65.4,-5.996 27.19,0 48.6,5.183 64.2,15.593 15.6,10.395 23.4,24.399 23.4,42.004 0,15.996 -5.82,28.594 -17.4,37.801 -11.61,9.18 -26.01,17.395 -43.21,24.602 -17.21,7.199 -35.81,14.394 -55.79,21.59 -20.01,7.207 -38.61,16.992 -55.8,29.406 -17.21,12.39 -31.61,28.984 -43.2,49.804 -11.61,20.79 -17.4,47.997 -17.4,81.59 0,26.407 5.4,51.399 16.2,75 10.79,23.594 27,43.995 48.6,61.205 21.6,17.19 48.39,30.99 80.4,41.4 31.99,10.38 69.18,15.6 111.6,15.6 17.58,0 36.6,-1.02 57,-3 20.4,-2.01 39.39,-4.61 57,-7.8 L 2831.76,950 c -16.01,4.805 -32.61,8.586 -49.8,11.395 -17.21,2.804 -35.01,4.21 -53.41,4.21 -28,0 -48.4,-5.011 -61.19,-15 -12.81,-10.019 -19.2,-23.41 -19.2,-40.207 0,-14.402 5.79,-26.003 17.4,-34.793 11.58,-8.82 26.19,-17.011 43.8,-24.609 17.58,-7.609 36.6,-15.41 57,-23.398 20.4,-8.008 39.39,-18.594 57,-31.797 17.58,-13.203 32.19,-30 43.8,-50.403 11.59,-20.398 17.4,-46.609 17.4,-78.601"
         style="fill:#5a8fd2;fill-opacity:1;fill-rule:nonzero;stroke:none"
         id="path26" /><path
         d="m 3285.36,437.598 c -17.6,-46.387 -35.39,-85.586 -53.4,-117.598 -17.99,-31.984 -38.21,-57.988 -60.59,-77.996 -22.41,-19.992 -47.82,-34.387 -76.2,-43.207 -28.41,-8.789 -61.41,-13.192 -99,-13.192 -24.01,0 -50.01,3.204 -78,9.598 l 18,140.402 c 23.19,-7.988 48.39,-12.003 75.59,-12.003 25.6,0 46.99,7.793 64.2,23.402 17.2,15.594 33.79,45 49.81,88.199 l 16.79,45.598 -218.39,596.399 182.4,0 71.99,-206.399 c 8.79,-25.617 17.4,-53.008 25.8,-82.199 8.4,-29.219 15.8,-57.809 22.21,-85.801 l 1.19,0 c 3.18,14.394 6.99,29.797 11.41,46.203 4.39,16.387 9.17,33 14.39,49.793 5.19,16.808 10.39,33.398 15.61,49.805 5.19,16.386 10.19,31.386 15,45 l 64.8,183.598 176.39,0 -240,-639.602"
         style="fill:#5a8fd2;fill-opacity:1;fill-rule:nonzero;stroke:none"
         id="path28" /><path
         d="m 3825.11,211.648 c -32.87,-5.652 -64.89,-8.496 -96.05,-8.496 -43.07,0 -82.02,6.368 -116.88,19.121 -34.85,12.754 -64.6,31.313 -89.25,55.676 -24.64,24.356 -43.77,54.11 -57.37,89.246 -13.6,35.141 -20.4,74.809 -20.4,119.004 0,44.199 7.08,85 21.25,122.403 14.16,37.394 34.28,69.699 60.35,96.898 26.06,27.203 57.8,48.453 95.2,63.75 37.4,15.301 79.61,22.945 126.65,22.945 61.2,0 116.16,-9.343 164.9,-28.047 l -17.85,-67.144 c -22.68,10.191 -46.62,18.125 -71.83,23.797 -25.22,5.652 -52.57,8.496 -82.02,8.496 -28.9,0 -56.52,-4.817 -82.88,-14.445 -26.35,-9.649 -49.59,-24.227 -69.7,-43.778 -20.11,-19.551 -36.12,-43.918 -48.02,-73.097 -11.9,-29.2 -17.86,-63.329 -17.86,-102.43 0,-36.836 5.11,-69.414 15.31,-97.746 10.2,-28.34 24.78,-52.149 43.78,-71.406 18.97,-19.266 41.77,-33.993 68.41,-44.2 26.64,-10.191 56.39,-15.293 89.26,-15.293 19.83,0 38.24,1.407 55.25,4.25 17,2.832 33.71,6.797 50.15,11.895 l 0,219.305 72.25,0 0,-266.055 c -28.9,-10.77 -59.8,-18.992 -92.65,-24.649"
         style="fill:#baad9f;fill-opacity:1;fill-rule:nonzero;stroke:none"
         id="path30" /><path
         d="m 4245.01,568.652 c -13.04,2.832 -24.37,4.246 -34,4.246 -39.1,0 -67.29,-16.863 -84.57,-50.574 -17.29,-33.722 -25.93,-80.898 -25.93,-141.523 l 0,-170 -72.25,0 0,422.453 70.55,0 c 0,-13.606 -0.85,-29.621 -2.55,-48.031 -1.69,-18.418 -4.25,-36.414 -7.65,-53.973 l 1.7,-0.852 c 9.63,32.305 25.21,58.926 46.76,79.903 21.52,20.957 50.14,31.449 85.85,31.449 4.52,0 9.62,-0.297 15.29,-0.852 5.66,-0.566 10.48,-1.418 14.45,-2.55 l -7.65,-69.696"
         style="fill:#baad9f;fill-opacity:1;fill-rule:nonzero;stroke:none"
         id="path32" /><path
         d="m 4574.82,425 c 0,49.863 -10.07,88.398 -30.18,115.605 -20.12,27.196 -50.57,40.79 -91.37,40.79 -15.87,0 -31.18,-3.114 -45.9,-9.344 -14.75,-6.242 -27.78,-15.723 -39.1,-28.477 -11.35,-12.746 -20.4,-28.898 -27.2,-48.445 -6.81,-19.555 -10.21,-42.649 -10.21,-69.281 0,-52.696 10.48,-92.938 31.46,-120.703 20.96,-27.762 51.55,-41.649 91.8,-41.649 15.86,0 31.15,3.262 45.89,9.774 14.73,6.515 27.63,16.289 38.68,29.328 11.05,13.027 19.83,29.754 26.35,50.156 6.51,20.398 9.78,44.473 9.78,72.246 z m 74.79,4.25 c 0,-31.742 -4.82,-61.352 -14.45,-88.82 -9.64,-27.5 -23.37,-51.426 -41.22,-71.828 -17.85,-20.399 -39.39,-36.414 -64.6,-48.028 -25.22,-11.609 -53.42,-17.422 -84.58,-17.422 -28.9,0 -54.97,4.25 -78.19,12.746 -23.24,8.504 -43.08,21.68 -59.5,39.532 -16.45,17.84 -29.05,40.222 -37.83,67.148 -8.8,26.902 -13.17,59.07 -13.17,96.473 0,30.597 4.67,59.355 14.02,86.269 9.35,26.914 22.81,50.434 40.37,70.559 17.56,20.105 38.96,35.976 64.18,47.598 25.21,11.609 53.69,17.421 85.42,17.421 26.63,0 51.43,-3.82 74.38,-11.476 22.95,-7.645 42.93,-19.969 59.93,-36.973 16.99,-17 30.45,-38.965 40.37,-65.879 9.9,-26.914 14.87,-59.363 14.87,-97.32"
         style="fill:#baad9f;fill-opacity:1;fill-rule:nonzero;stroke:none"
         id="path34" /><path
         d="m 4995.55,210.801 c 0,13.027 0.56,28.183 1.7,45.476 1.13,17.278 2.83,32.149 5.11,44.621 l -1.71,0.852 c -11.9,-30.039 -30.6,-54.121 -56.09,-72.246 -25.5,-18.149 -56.67,-27.199 -93.51,-27.199 -24.37,0 -44.62,3.543 -60.77,10.625 -16.15,7.07 -29.19,16.699 -39.1,28.894 -9.93,12.18 -16.87,26.485 -20.82,42.922 -3.98,16.434 -5.96,34.004 -5.96,52.703 l 0,295.805 72.26,0 0,-272.856 c 0,-31.171 5.21,-55.398 15.65,-72.675 10.44,-17.293 30.05,-25.926 58.83,-25.926 18.04,0 34.55,4.258 49.51,12.754 14.95,8.496 27.93,20.254 38.93,35.273 10.99,15.012 19.59,32.86 25.82,53.555 6.2,20.672 9.3,42.918 9.3,66.719 l 0,203.156 72.26,0 0,-422.453 -71.41,0"
         style="fill:#baad9f;fill-opacity:1;fill-rule:nonzero;stroke:none"
         id="path36" /><path
         d="m 5468.15,430.945 c 0,47.61 -7.79,84.582 -23.38,110.93 -15.59,26.348 -39.52,39.52 -71.82,39.52 -20.4,0 -38.12,-5.243 -53.12,-15.723 -15.03,-10.488 -27.5,-23.945 -37.4,-40.371 -9.93,-16.446 -17.43,-34.715 -22.53,-54.824 -5.1,-20.125 -7.65,-39.825 -7.65,-59.082 l 0,-134.297 c 11.33,-5.094 23.65,-8.926 36.97,-11.473 13.31,-2.551 29.61,-3.828 48.88,-3.828 18.7,0 35.98,3.262 51.85,9.773 15.86,6.516 29.61,16.582 41.23,30.18 11.6,13.602 20.67,31.023 27.19,52.273 6.51,21.25 9.78,46.883 9.78,76.922 z m 74.8,6.809 c 0,-36.848 -4.97,-69.57 -14.88,-98.176 -9.92,-28.621 -23.94,-52.851 -42.07,-72.676 -18.14,-19.843 -40.1,-35 -65.88,-45.476 -25.79,-10.488 -54.54,-15.723 -86.27,-15.723 -17.58,0 -32.3,0.715 -44.2,2.117 -11.9,1.43 -24.37,3.535 -37.4,6.379 L 5252.25,0 5180,0 l 0,633.254 70.55,0 c 0,-12.473 -0.57,-27.199 -1.7,-44.203 -1.14,-17 -3.12,-31.746 -5.95,-44.199 l 1.7,-0.848 c 11.9,30.594 30.31,54.394 55.25,71.394 24.93,17.004 54.4,25.5 88.4,25.5 49.86,0 88.11,-17.148 114.75,-51.425 26.62,-34.289 39.95,-84.864 39.95,-151.719"
         style="fill:#baad9f;fill-opacity:1;fill-rule:nonzero;stroke:none"
         id="path38" /></g></g></svg>