<?xml version="1.0" encoding="UTF-8" standalone="no"?>
<!-- Created with Inkscape (http://www.inkscape.org/) -->

<svg
   xmlns:osb="http://www.openswatchbook.org/uri/2009/osb"
   xmlns:dc="http://purl.org/dc/elements/1.1/"
   xmlns:cc="http://creativecommons.org/ns#"
   xmlns:rdf="http://www.w3.org/1999/02/22-rdf-syntax-ns#"
   xmlns:svg="http://www.w3.org/2000/svg"
   xmlns="http://www.w3.org/2000/svg"
   xmlns:sodipodi="http://sodipodi.sourceforge.net/DTD/sodipodi-0.dtd"
   xmlns:inkscape="http://www.inkscape.org/namespaces/inkscape"
   width="300"
   height="300"
   id="svg2"
   version="1.1"
   inkscape:version="0.48.5 r10040"
   sodipodi:docname="logo_titlebar.svg"
   inkscape:export-filename="/home/jonas/gitty/work/mailDelay.src/app/static/images/logo_titlebar.png"
   inkscape:export-xdpi="90"
   inkscape:export-ydpi="90">
  <defs
     id="defs4">
    <linearGradient
       id="linearGradient3770"
       osb:paint="gradient">
      <stop
         style="stop-color:#000000;stop-opacity:1;"
         offset="0"
         id="stop3772" />
      <stop
         style="stop-color:#000000;stop-opacity:0;"
         offset="1"
         id="stop3774" />
    </linearGradient>
    <filter
       inkscape:collect="always"
       id="filter3781">
      <feGaussianBlur
         inkscape:collect="always"
         stdDeviation="1.6517628"
         id="feGaussianBlur3783" />
    </filter>
    <filter
       inkscape:collect="always"
       id="filter3785">
      <feGaussianBlur
         inkscape:collect="always"
         stdDeviation="0.9624337"
         id="feGaussianBlur3787" />
    </filter>
  </defs>
  <sodipodi:namedview
     id="base"
     pagecolor="#d2d2d2"
     bordercolor="#666666"
     borderopacity="1.0"
     inkscape:pageopacity="0"
     inkscape:pageshadow="2"
     inkscape:zoom="3.14"
     inkscape:cx="94.426752"
     inkscape:cy="150"
     inkscape:document-units="px"
     inkscape:current-layer="layer1"
     showgrid="false"
     inkscape:window-width="1918"
     inkscape:window-height="1182"
     inkscape:window-x="1680"
     inkscape:window-y="16"
     inkscape:window-maximized="1"
     fit-margin-top="0"
     fit-margin-left="0"
     fit-margin-right="0"
     fit-margin-bottom="0" />
  <metadata
     id="metadata7">
    <rdf:RDF>
      <cc:Work
         rdf:about="">
        <dc:format>image/svg+xml</dc:format>
        <dc:type
           rdf:resource="http://purl.org/dc/dcmitype/StillImage" />
        <dc:title></dc:title>
      </cc:Work>
    </rdf:RDF>
  </metadata>
  <g
     inkscape:label="Layer 1"
     inkscape:groupmode="layer"
     id="layer1"
     transform="translate(-277.41457,-456.98563)">
    <path
       d="m 538.73718,534.93883 5.33519,-7.76457 8.36861,5.77729 -5.31103,7.72898 c -2.58726,-2.18381 -5.39722,-4.11287 -8.39277,-5.7417 z m -31.5075,-17.57566 v 12.12684 c 2.50997,-0.38948 5.07994,-0.5926 7.6972,-0.5926 2.56819,0 5.09138,0.19524 7.55636,0.57023 v -12.10447 h -15.25356 z m 51.34654,61.53923 c 0,24.10673 -19.5421,43.64934 -43.64934,43.64934 -24.10673,0 -43.64883,-19.54261 -43.64883,-43.64934 0,-24.10648 19.5421,-43.64909 43.64883,-43.64909 24.10724,-2.5e-4 43.64934,19.54236 43.64934,43.64909 z m -11.44017,0 c 0,-17.80371 -14.40903,-32.20892 -32.20917,-32.20892 -17.80371,0 -32.20866,14.40903 -32.20866,32.20892 0,17.8037 14.40902,32.20917 32.20866,32.20917 17.8037,0 32.20917,-14.40852 32.20917,-32.20917 z m -23.7526,2.29871 c 0,4.42252 -3.58509,8.00812 -8.00812,8.00812 -4.42251,0 -8.00812,-3.5856 -8.00812,-8.00812 0,-2.87301 1.51392,-5.39137 3.7867,-6.80461 l 2.92995,-22.01776 c 0.06,-0.49549 0.47566,-0.87149 0.97471,-0.88242 0.49904,-0.0107 0.92996,0.34676 1.01156,0.8392 l 3.38884,21.97708 c 2.3493,1.3957 3.92448,3.95754 3.92448,6.88851 z m -5.65983,25.58379 h -5.08452 v -6.60989 h 5.08452 v 6.60989 z m 25.42261,-30.50713 v 5.08452 h -6.60988 v -5.08452 h 6.60988 z m -55.92974,0 v 5.08452 h 6.60988 v -5.08452 h -6.60988 z m 49.53671,20.51884 -3.59526,3.59526 -4.376,-4.37599 3.59527,-3.59527 4.37599,4.376 z m -39.54842,-39.54817 -3.59552,3.59552 4.37625,4.37599 3.59526,-3.59552 -4.37599,-4.37599 z m 35.95316,0 3.59526,3.59552 -4.37599,4.37599 -3.59527,-3.59552 4.376,-4.37599 z m -39.54868,39.54842 3.59552,3.59526 4.37599,-4.37624 -3.59526,-3.59527 -4.37625,4.37625 z"
       id="time-10-icon-2"
       inkscape:connector-curvature="0"
       style="fill:none;stroke:#000000;stroke-opacity:1;filter:url(#filter3785)"
       transform="matrix(1.1233605,0,0,1.1233605,-53.966201,-74.187396)" />
    <path
       d="m 551.51442,527.02746 5.99334,-8.72242 9.40097,6.48998 -5.9662,8.68244 c -2.90643,-2.45322 -6.06303,-4.62025 -9.42811,-6.45 z m -35.39428,-19.74381 v 13.62281 c 2.8196,-0.43752 5.7066,-0.6657 8.64673,-0.6657 2.88501,0 5.71945,0.21933 8.48852,0.64058 v -13.59769 h -17.13525 z m 57.68068,69.13074 c 0,27.08055 -21.95283,49.03394 -49.03395,49.03394 -27.08055,0 -49.03336,-21.95339 -49.03336,-49.03394 0,-27.08026 21.95281,-49.03366 49.03336,-49.03366 27.08112,-2.8e-4 49.03395,21.95311 49.03395,49.03366 z m -12.85144,0 c 0,-19.99999 -16.18653,-36.18223 -36.18251,-36.18223 -19.99998,0 -36.18194,16.18653 -36.18194,36.18223 0,19.99997 16.18652,36.18251 36.18194,36.18251 19.99997,0 36.18251,-16.18596 36.18251,-36.18251 z m -26.68273,2.58228 c 0,4.96808 -4.02735,8.996 -8.99601,8.996 -4.96808,0 -8.99601,-4.02792 -8.99601,-8.996 0,-3.22743 1.70069,-6.05645 4.25383,-7.64403 l 3.29139,-24.73388 c 0.0675,-0.55662 0.53435,-0.97899 1.09496,-0.99127 0.5606,-0.012 1.04468,0.38953 1.13634,0.94271 l 3.80689,24.68819 c 2.63912,1.56788 4.40861,4.44574 4.40861,7.73828 z m -6.35803,28.73982 h -5.71175 v -7.42529 h 5.71175 v 7.42529 z m 28.55875,-34.27051 v 5.71175 h -7.42528 v -5.71175 h 7.42528 z m -62.82926,0 v 5.71175 h 7.42528 v -5.71175 h -7.42528 z m 55.64759,23.05006 -4.03878,4.03877 -4.91582,-4.91581 4.03878,-4.03879 4.91582,4.91583 z m -44.42714,-44.42685 -4.03906,4.03906 4.9161,4.91582 4.03878,-4.03907 -4.91582,-4.91581 z m 40.38836,0 4.03878,4.03906 -4.91582,4.91582 -4.03878,-4.03907 4.91582,-4.91581 z m -44.42742,44.42713 4.03906,4.03877 4.91582,-4.91609 -4.03878,-4.03879 -4.9161,4.91611 z"
       id="time-10-icon"
       inkscape:connector-curvature="0"
       style="fill:#008cba;fill-opacity:1" />
    <path
       d="m 434.55045,593.97193 c 0,0 -34.3703,-1.43072 -53.37145,18.914 8.92462,-38.86594 53.37145,-47.91084 53.37145,-47.91084 v -11.94498 l 35.75251,26.44379 -35.75251,26.44301 v -11.94498 z m -123.18076,13.12646 69.8097,-53.30402 18.48257,14.11038 c 3.25934,-2.47063 8.46047,-5.37938 12.83346,-7.58067 L 381.179,536.42861 299.94211,598.32007 v 79.27064 l 46.53375,-43.60567 -35.10617,-26.88665 z m 104.51284,27.11616 46.53335,43.54337 v -78.3723 l -46.53335,34.82893 z m -115.74364,62.20577 h 161.98202 l -80.94507,-75.72422 -81.03695,75.72422 z"
       id="email-8-icon-0"
       inkscape:connector-curvature="0"
       style="fill:none;stroke:#000000;stroke-opacity:1;filter:url(#filter3781)"
       transform="matrix(1.1233605,0,0,1.1233605,-53.966201,-74.187396)" />
    <path
       d="m 433.68472,592.83946 c 0,0 -38.61024,-1.60721 -59.95538,21.24723 10.02557,-43.66046 59.95538,-53.82113 59.95538,-53.82113 v -13.41852 l 40.16295,29.70591 -40.16295,29.70503 v -13.41852 z m -138.37639,14.74575 78.42145,-59.87963 20.76258,15.85104 c 3.66142,-2.7754 9.50416,-6.04298 14.41661,-8.51582 l -35.17963,-26.84323 -91.25831,69.52642 v 89.04949 l 52.27418,-48.98487 -39.43688,-30.2034 z m 117.40559,30.46122 52.27371,48.9149 v -88.04035 l -52.27371,39.12545 z m -130.02183,69.8795 h 181.96419 l -90.93048,-85.06559 -91.03371,85.06559 z"
       id="email-8-icon"
       inkscape:connector-curvature="0"
       style="fill:#ffffff;fill-opacity:1" />
  </g>
</svg>
