<svg id="Ebene_1" data-name="Ebene 1" xmlns="http://www.w3.org/2000/svg" viewBox="0 0 930.88 255.82"><defs><style>.cls-1{fill:#111110;}</style></defs><title>adfinis_logo_vaj_1</title><path class="cls-1" d="M442.55,137.25,440,130.79c-3.25-8.21-7-17.27-11.4-27.71-3.74-8.56-7.45-16.79-11.68-25.9H396.52c-4,8.51-7.87,17.21-11.62,25.9-3.53,8.07-6.88,16.27-11.46,27.71s-8.27,21.32-11.72,30.84c-3.38,9-7,19-11.37,31.55h22.23c1.17-3.59,2.38-7,3.59-10.17,1.2-3.32,2.39-6.86,3.54-10.29l1.37-4.06h50.5l.11.32c1.66,4.93,3.32,9.63,4.94,14,1.1,3.06,2.4,6.65,3.63,10.23h23.08c-4-11.29-8.06-22.5-11.45-31.55C448.73,153.12,445.59,145.05,442.55,137.25Zm-56,14.09.23-.64c3.59-10,7-19.19,10.45-28.17,2.95-7.75,5.87-15,8.69-21.67l.45-1,.44,1c2.29,5.48,5.13,12.5,8.68,21.47,2.84,7.46,6.59,17.43,10.46,28.37l.23.64Z"/><path class="cls-1" d="M533,106l-.71-.37a52.61,52.61,0,0,0-8.68-3.5A38.94,38.94,0,0,0,512,100.54a41.26,41.26,0,0,0-17.17,3.4,35.15,35.15,0,0,0-12.62,9.68,43.06,43.06,0,0,0-7.88,15.1,61.89,61.89,0,0,0-2.7,18.86,53.24,53.24,0,0,0,3.21,19,42.37,42.37,0,0,0,9.18,15,40.27,40.27,0,0,0,14.48,9.51,52.7,52.7,0,0,0,19.28,3.33,122.29,122.29,0,0,0,20-1.59,123.17,123.17,0,0,0,15.47-3.42V70L533,72.53Zm0,69.37-.37.09a57.45,57.45,0,0,1-5.92,1,72.3,72.3,0,0,1-8.74.46c-8,0-14.26-2.77-18.77-8.22s-6.78-12.1-6.78-21.59c0-9.12,1.83-15.58,5.44-20.94s9.45-8.16,17.3-8.16a29.75,29.75,0,0,1,10.07,1.71,33.3,33.3,0,0,1,7.56,3.68l.21.14Z"/><rect class="cls-1" x="653.83" y="106.2" width="21.14" height="86.98"/><path class="cls-1" d="M773.21,112.63a30.12,30.12,0,0,0-12.31-8.86c-5.14-2.12-11.65-3.19-19.35-3.19-21.68,0-35.34,6.17-38.76,8.54v84.06h21.13v-71l.3-.13c.2-.07.43-.2.73-.34,1.88-1,5.79-3,15-3a26.5,26.5,0,0,1,9.75,1.6,13.7,13.7,0,0,1,6.44,5.14,24.09,24.09,0,0,1,3.35,9,74.79,74.79,0,0,1,1,13.24v45.43h21.12V144.26a78.82,78.82,0,0,0-1.89-17.84A34.23,34.23,0,0,0,773.21,112.63Z"/><rect class="cls-1" x="807.6" y="106.2" width="21.13" height="86.98"/><rect class="cls-1" x="654.36" y="71.33" width="20.08" height="19.1"/><rect class="cls-1" x="808.13" y="71.33" width="20.08" height="19.1"/><path class="cls-1" d="M914.56,158.35a20.34,20.34,0,0,0-4.8-7.57,33.55,33.55,0,0,0-8.37-6,114.67,114.67,0,0,0-12.4-5.39,79.11,79.11,0,0,1-7.49-3,28.5,28.5,0,0,1-5-2.92,8.77,8.77,0,0,1-2.67-3.24,9.65,9.65,0,0,1-.78-4,7.12,7.12,0,0,1,4-6.73,21.38,21.38,0,0,1,10.27-2.16,52.18,52.18,0,0,1,12.28,1.29,50.66,50.66,0,0,1,8.52,2.75l3.66-16.47a81.23,81.23,0,0,0-25.48-4.22c-10.23,0-18.43,2.38-24.37,7.08S853,119,853,127.11A26.16,26.16,0,0,0,855,137.76a21.9,21.9,0,0,0,5.32,7.39,34.62,34.62,0,0,0,8,5.38,99.87,99.87,0,0,0,10.26,4.35c6.14,2.3,10.58,4.44,13.21,6.36a8.92,8.92,0,0,1,4.06,7.5c0,3.29-1.25,5.54-3.82,6.9s-6.54,2-12,2a56.5,56.5,0,0,1-14.58-1.73,91.82,91.82,0,0,1-10.81-3.53l-3.49,17a97.27,97.27,0,0,0,9.88,3.11c4.74,1.3,11.08,2,18.83,2,11.58,0,20.61-2.21,26.84-6.57s9.36-10.84,9.36-19.31A30.49,30.49,0,0,0,914.56,158.35Z"/><path class="cls-1" d="M619.38,66.78c-13.09,0-22.91,3.44-29.24,10.32s-9.51,16.59-9.51,28.93v87.15h21.09V127h27V109.36h-27v-3c0-6.32,1.44-11.58,4.2-15.58s8-6.08,15.46-6.08a38.26,38.26,0,0,1,7.83.75c.12.07.25.07.38.13l1.56-17.78H631A56,56,0,0,0,619.38,66.78Z"/><polygon class="cls-1" points="135.09 160.05 152.09 189.49 126.58 233.65 92.6 233.65 135.09 160.05"/><polygon class="cls-1" points="152.09 101.18 75.59 233.65 41.59 233.65 135.07 71.73 152.09 101.18"/><polygon class="cls-1" points="228.57 233.65 194.58 233.65 169.09 189.49 186.09 160.06 228.57 233.65"/><polygon class="cls-1" points="279.57 233.65 245.57 233.65 126.59 27.57 160.59 27.57 279.57 233.65"/></svg>